<?xml version="1.0" encoding="utf-8"?>
<!-- Generator: Adobe Illustrator 23.0.6, SVG Export Plug-In . SVG Version: 6.00 Build 0)  -->
<svg version="1.1" id="Layer_1" xmlns="http://www.w3.org/2000/svg" xmlns:xlink="http://www.w3.org/1999/xlink" x="0px" y="0px"
	 viewBox="0 0 239 37" enable-background="new 0 0 239 37" xml:space="preserve">
<path fill="#FFFFFF" d="M24.3,0.9h-3.1L0,37h20.2l2.8-5.7l2.9,5.7h20.8L24.3,0.9z M22.8,5.5L33.1,22h-20L22.8,5.5z M17.9,33.3H6.5
	l4.5-7.6h10.7L17.9,33.3z M24.3,25.7h11.1l4.7,7.6H28.2L24.3,25.7z"/>
<path fill="#FFFFFF" d="M65,31.2h-4.7L70.8,6.7h4.9l10.6,24.5h-4.9l-2.8-6.7h-8.2l1.6-3.9H77l-3.9-9.2L65,31.2z"/>
<path fill="#FFFFFF" d="M102.7,6.7v3.9h-7v20.6h-4.5V10.6h-7V6.7H102.7z"/>
<path fill="#FFFFFF" d="M113,31.2V6.7h9.6c8.1,0,12.2,3.9,12.2,11.6c0,8.6-4.1,12.9-12.2,12.9L113,31.2z M122.6,27.3
	c5.1,0,7.6-3,7.6-9c0-5.1-2.5-7.7-7.6-7.7h-5.1v16.7H122.6z"/>
<path fill="#FFFFFF" d="M143.2,6.7v24.5h-4.5V6.7H143.2z"/>
<path fill="#FFFFFF" d="M167.9,30.1c-2.4,0.9-4.9,1.4-7.4,1.3c-8.6,0-13-4.3-13-12.8c0-8.1,4.4-12.1,13.2-12.1
	c2.5,0,4.9,0.4,7.2,1.2v4.1c-2.2-0.9-4.5-1.4-6.9-1.4c-5.9,0-8.8,2.7-8.8,8.1c0,5.9,2.8,8.8,8.3,8.8c1,0,1.9-0.2,2.8-0.4v-7.1h4.5
	V30.1z"/>
<path fill="#FFFFFF" d="M176.7,6.7v24.5h-4.5V6.7H176.7z"/>
<path fill="#FFFFFF" d="M197.8,6.7v3.9h-7v20.6h-4.5V10.6h-7V6.7H197.8z"/>
<path fill="#FFFFFF" d="M200.4,31.2h-4.7l10.4-24.5h4.9l10.6,24.5h-4.9l-2.8-6.7h-8.1l1.6-3.9h4.9l-3.9-9.2L200.4,31.2z"/>
<path fill="#FFFFFF" d="M229.2,6.7v20.6h9.7v3.9h-14.3V6.7H229.2z"/>
</svg>
