<svg width="549" height="181" viewBox="0 0 549 181" fill="none" xmlns="http://www.w3.org/2000/svg">
<path d="M10.892 36L0.903409 1.09091H8.96591L14.7443 25.3466H15.0341L21.4091 1.09091H28.3125L34.6705 25.3977H34.9773L40.7557 1.09091H48.8182L38.8295 36H31.6364L24.9886 13.1761H24.7159L18.0852 36H10.892ZM60.7914 36.5114C58.0982 36.5114 55.7801 35.9659 53.8369 34.875C51.9051 33.7727 50.4164 32.2159 49.371 30.2045C48.3255 28.1818 47.8028 25.7898 47.8028 23.0284C47.8028 20.3352 48.3255 17.9716 49.371 15.9375C50.4164 13.9034 51.888 12.3182 53.7857 11.1818C55.6948 10.0455 57.9335 9.47727 60.5016 9.47727C62.2289 9.47727 63.8369 9.75568 65.3255 10.3125C66.8255 10.858 68.1323 11.6818 69.246 12.7841C70.371 13.8864 71.246 15.2727 71.871 16.9432C72.496 18.6023 72.8085 20.5455 72.8085 22.7727V24.767H50.7005V20.267H65.9732C65.9732 19.2216 65.746 18.2955 65.2914 17.4886C64.8369 16.6818 64.2062 16.0511 63.3994 15.5966C62.6039 15.1307 61.6778 14.8977 60.621 14.8977C59.5187 14.8977 58.5414 15.1534 57.6891 15.6648C56.8482 16.1648 56.1891 16.8409 55.7119 17.6932C55.2346 18.5341 54.9903 19.4716 54.9789 20.5057V24.7841C54.9789 26.0795 55.2176 27.1989 55.6948 28.142C56.1835 29.0852 56.871 29.8125 57.7573 30.3239C58.6437 30.8352 59.6948 31.0909 60.9107 31.0909C61.7176 31.0909 62.4562 30.9773 63.1266 30.75C63.7971 30.5227 64.371 30.1818 64.8482 29.7273C65.3255 29.2727 65.6891 28.7159 65.9391 28.0568L72.6551 28.5C72.3141 30.1136 71.6153 31.5227 70.5585 32.7273C69.513 33.9205 68.1607 34.8523 66.5016 35.5227C64.8539 36.1818 62.9505 36.5114 60.7914 36.5114ZM117.674 13.3125H110.208C110.072 12.3466 109.793 11.4886 109.373 10.7386C108.952 9.97727 108.413 9.32954 107.754 8.79545C107.094 8.26136 106.333 7.85227 105.469 7.56818C104.617 7.28409 103.691 7.14205 102.691 7.14205C100.884 7.14205 99.3103 7.59091 97.9694 8.48864C96.6285 9.375 95.5888 10.6705 94.8501 12.375C94.1115 14.0682 93.7422 16.125 93.7422 18.5455C93.7422 21.0341 94.1115 23.125 94.8501 24.8182C95.6001 26.5114 96.6456 27.7898 97.9865 28.6534C99.3274 29.517 100.879 29.9489 102.64 29.9489C103.629 29.9489 104.543 29.8182 105.384 29.5568C106.236 29.2955 106.992 28.9148 107.651 28.4148C108.31 27.9034 108.856 27.2841 109.288 26.5568C109.731 25.8295 110.038 25 110.208 24.0682L117.674 24.1023C117.481 25.7045 116.998 27.25 116.225 28.7386C115.464 30.2159 114.435 31.5398 113.14 32.7102C111.856 33.8693 110.322 34.7898 108.538 35.4716C106.765 36.142 104.759 36.4773 102.521 36.4773C99.4069 36.4773 96.6228 35.7727 94.1683 34.3636C91.7251 32.9545 89.7933 30.9148 88.3728 28.2443C86.9638 25.5739 86.2592 22.3409 86.2592 18.5455C86.2592 14.7386 86.9751 11.5 88.4069 8.82955C89.8388 6.15909 91.7819 4.125 94.2365 2.72727C96.691 1.31818 99.4524 0.613635 102.521 0.613635C104.543 0.613635 106.418 0.897726 108.146 1.46591C109.884 2.03409 111.424 2.86364 112.765 3.95454C114.106 5.03409 115.197 6.35795 116.038 7.92614C116.89 9.49432 117.435 11.2898 117.674 13.3125ZM121.87 36V9.81818H128.91V14.3864H129.183C129.66 12.7614 130.461 11.5341 131.586 10.7045C132.711 9.86364 134.007 9.44318 135.473 9.44318C135.836 9.44318 136.228 9.46591 136.649 9.51136C137.069 9.55682 137.438 9.61932 137.757 9.69886V16.142C137.416 16.0398 136.944 15.9489 136.342 15.8693C135.74 15.7898 135.188 15.75 134.688 15.75C133.62 15.75 132.666 15.983 131.825 16.4489C130.995 16.9034 130.336 17.5398 129.848 18.358C129.37 19.1761 129.132 20.1193 129.132 21.1875V36H121.87ZM157.341 24.8523V9.81818H164.602V36H157.63V31.2443H157.358C156.767 32.7784 155.784 34.0114 154.409 34.9432C153.045 35.875 151.38 36.3409 149.414 36.3409C147.664 36.3409 146.125 35.9432 144.795 35.1477C143.466 34.3523 142.426 33.2216 141.676 31.7557C140.937 30.2898 140.562 28.5341 140.551 26.4886V9.81818H147.812V25.1932C147.824 26.7386 148.238 27.9602 149.057 28.858C149.875 29.7557 150.971 30.2045 152.346 30.2045C153.221 30.2045 154.039 30.0057 154.801 29.608C155.562 29.1989 156.176 28.5966 156.642 27.8011C157.119 27.0057 157.352 26.0227 157.341 24.8523ZM191.234 17.2841L184.587 17.6932C184.473 17.125 184.229 16.6136 183.854 16.1591C183.479 15.6932 182.984 15.3239 182.371 15.0511C181.768 14.767 181.047 14.625 180.206 14.625C179.081 14.625 178.132 14.8636 177.359 15.3409C176.587 15.8068 176.2 16.4318 176.2 17.2159C176.2 17.8409 176.45 18.3693 176.95 18.8011C177.45 19.233 178.308 19.5795 179.524 19.8409L184.263 20.7955C186.808 21.3182 188.706 22.1591 189.956 23.3182C191.206 24.4773 191.831 26 191.831 27.8864C191.831 29.6023 191.325 31.108 190.314 32.4034C189.314 33.6989 187.939 34.7102 186.189 35.4375C184.45 36.1534 182.445 36.5114 180.172 36.5114C176.706 36.5114 173.945 35.7898 171.888 34.3466C169.842 32.892 168.643 30.9148 168.291 28.4148L175.433 28.0398C175.649 29.0966 176.172 29.9034 177.001 30.4602C177.831 31.0057 178.893 31.2784 180.189 31.2784C181.462 31.2784 182.484 31.0341 183.257 30.5455C184.041 30.0455 184.439 29.4034 184.45 28.6193C184.439 27.9602 184.16 27.4205 183.615 27C183.07 26.5682 182.229 26.2386 181.092 26.0114L176.558 25.108C174.001 24.5966 172.098 23.7102 170.848 22.4489C169.609 21.1875 168.99 19.5795 168.99 17.625C168.99 15.9432 169.445 14.4943 170.354 13.2784C171.274 12.0625 172.564 11.125 174.223 10.4659C175.893 9.80682 177.848 9.47727 180.087 9.47727C183.393 9.47727 185.996 10.1761 187.893 11.5739C189.803 12.9716 190.916 14.875 191.234 17.2841ZM202.705 20.8636V36H195.443V1.09091H202.5V14.4375H202.807C203.398 12.892 204.352 11.6818 205.671 10.8068C206.989 9.92045 208.642 9.47727 210.631 9.47727C212.449 9.47727 214.034 9.875 215.387 10.6705C216.75 11.4545 217.807 12.5852 218.557 14.0625C219.318 15.5284 219.693 17.2841 219.682 19.3295V36H212.421V20.625C212.432 19.0114 212.023 17.7557 211.193 16.858C210.375 15.9602 209.227 15.5114 207.75 15.5114C206.762 15.5114 205.887 15.7216 205.125 16.142C204.375 16.5625 203.784 17.1761 203.352 17.983C202.932 18.7784 202.716 19.7386 202.705 20.8636ZM232.677 1.09091H240.944L248.904 16.125H249.245L257.205 1.09091H265.472L252.739 23.6591V36H245.41V23.6591L232.677 1.09091ZM274.752 36.5114C272.105 36.5114 269.815 35.9489 267.883 34.8239C265.962 33.6875 264.48 32.108 263.434 30.0852C262.389 28.0511 261.866 25.6932 261.866 23.0114C261.866 20.3068 262.389 17.9432 263.434 15.9205C264.48 13.8864 265.962 12.3068 267.883 11.1818C269.815 10.0455 272.105 9.47727 274.752 9.47727C277.4 9.47727 279.684 10.0455 281.605 11.1818C283.536 12.3068 285.025 13.8864 286.07 15.9205C287.116 17.9432 287.639 20.3068 287.639 23.0114C287.639 25.6932 287.116 28.0511 286.07 30.0852C285.025 32.108 283.536 33.6875 281.605 34.8239C279.684 35.9489 277.4 36.5114 274.752 36.5114ZM274.786 30.8864C275.991 30.8864 276.997 30.5455 277.803 29.8636C278.61 29.1705 279.218 28.2273 279.627 27.0341C280.048 25.8409 280.258 24.483 280.258 22.9602C280.258 21.4375 280.048 20.0795 279.627 18.8864C279.218 17.6932 278.61 16.75 277.803 16.0568C276.997 15.3636 275.991 15.017 274.786 15.017C273.57 15.017 272.548 15.3636 271.718 16.0568C270.9 16.75 270.281 17.6932 269.86 18.8864C269.451 20.0795 269.247 21.4375 269.247 22.9602C269.247 24.483 269.451 25.8409 269.86 27.0341C270.281 28.2273 270.9 29.1705 271.718 29.8636C272.548 30.5455 273.57 30.8864 274.786 30.8864ZM308.19 24.8523V9.81818H315.451V36H308.48V31.2443H308.207C307.616 32.7784 306.633 34.0114 305.258 34.9432C303.895 35.875 302.23 36.3409 300.264 36.3409C298.514 36.3409 296.974 35.9432 295.645 35.1477C294.315 34.3523 293.275 33.2216 292.525 31.7557C291.787 30.2898 291.412 28.5341 291.4 26.4886V9.81818H298.662V25.1932C298.673 26.7386 299.088 27.9602 299.906 28.858C300.724 29.7557 301.821 30.2045 303.196 30.2045C304.071 30.2045 304.889 30.0057 305.65 29.608C306.412 29.1989 307.025 28.5966 307.491 27.8011C307.968 27.0057 308.201 26.0227 308.19 24.8523ZM320.3 36V9.81818H327.339V14.3864H327.612C328.089 12.7614 328.891 11.5341 330.016 10.7045C331.141 9.86364 332.436 9.44318 333.902 9.44318C334.266 9.44318 334.658 9.46591 335.078 9.51136C335.498 9.55682 335.868 9.61932 336.186 9.69886V16.142C335.845 16.0398 335.373 15.9489 334.771 15.8693C334.169 15.7898 333.618 15.75 333.118 15.75C332.05 15.75 331.095 15.983 330.254 16.4489C329.425 16.9034 328.766 17.5398 328.277 18.358C327.8 19.1761 327.561 20.1193 327.561 21.1875V36H320.3ZM33.8352 61.3125H26.3693C26.233 60.3466 25.9545 59.4886 25.5341 58.7386C25.1136 57.9773 24.5739 57.3295 23.9148 56.7955C23.2557 56.2614 22.4943 55.8523 21.6307 55.5682C20.7784 55.2841 19.8523 55.142 18.8523 55.142C17.0455 55.142 15.4716 55.5909 14.1307 56.4886C12.7898 57.375 11.75 58.6705 11.0114 60.375C10.2727 62.0682 9.90341 64.125 9.90341 66.5455C9.90341 69.0341 10.2727 71.125 11.0114 72.8182C11.7614 74.5114 12.8068 75.7898 14.1477 76.6534C15.4886 77.517 17.0398 77.9489 18.8011 77.9489C19.7898 77.9489 20.7045 77.8182 21.5455 77.5568C22.3977 77.2955 23.1534 76.9148 23.8125 76.4148C24.4716 75.9034 25.017 75.2841 25.4489 74.5568C25.892 73.8295 26.1989 73 26.3693 72.0682L33.8352 72.1023C33.642 73.7045 33.1591 75.25 32.3864 76.7386C31.625 78.2159 30.5966 79.5398 29.3011 80.7102C28.017 81.8693 26.483 82.7898 24.6989 83.4716C22.9261 84.142 20.9205 84.4773 18.6818 84.4773C15.5682 84.4773 12.7841 83.7727 10.3295 82.3636C7.88636 80.9545 5.95455 78.9148 4.53409 76.2443C3.125 73.5739 2.42045 70.3409 2.42045 66.5455C2.42045 62.7386 3.13636 59.5 4.56818 56.8295C6 54.1591 7.94318 52.125 10.3977 50.7273C12.8523 49.3182 15.6136 48.6136 18.6818 48.6136C20.7045 48.6136 22.5795 48.8977 24.3068 49.4659C26.0455 50.0341 27.5852 50.8636 28.9261 51.9545C30.267 53.0341 31.358 54.358 32.1989 55.9261C33.0511 57.4943 33.5966 59.2898 33.8352 61.3125ZM49.861 84.5114C47.2133 84.5114 44.9235 83.9489 42.9917 82.8239C41.0713 81.6875 39.5883 80.108 38.5428 78.0852C37.4974 76.0511 36.9747 73.6932 36.9747 71.0114C36.9747 68.3068 37.4974 65.9432 38.5428 63.9205C39.5883 61.8864 41.0713 60.3068 42.9917 59.1818C44.9235 58.0455 47.2133 57.4773 49.861 57.4773C52.5088 57.4773 54.7928 58.0455 56.7133 59.1818C58.6451 60.3068 60.1338 61.8864 61.1792 63.9205C62.2247 65.9432 62.7474 68.3068 62.7474 71.0114C62.7474 73.6932 62.2247 76.0511 61.1792 78.0852C60.1338 80.108 58.6451 81.6875 56.7133 82.8239C54.7928 83.9489 52.5088 84.5114 49.861 84.5114ZM49.8951 78.8864C51.0997 78.8864 52.1053 78.5455 52.9122 77.8636C53.719 77.1705 54.3269 76.2273 54.736 75.0341C55.1565 73.8409 55.3667 72.483 55.3667 70.9602C55.3667 69.4375 55.1565 68.0795 54.736 66.8864C54.3269 65.6932 53.719 64.75 52.9122 64.0568C52.1053 63.3636 51.0997 63.017 49.8951 63.017C48.6792 63.017 47.6565 63.3636 46.8269 64.0568C46.0088 64.75 45.3894 65.6932 44.969 66.8864C44.5599 68.0795 44.3553 69.4375 44.3553 70.9602C44.3553 72.483 44.5599 73.8409 44.969 75.0341C45.3894 76.2273 46.0088 77.1705 46.8269 77.8636C47.6565 78.5455 48.6792 78.8864 49.8951 78.8864ZM66.509 84V57.8182H73.4294V62.4375H73.7363C74.2817 60.9034 75.1908 59.6932 76.4635 58.8068C77.7363 57.9205 79.259 57.4773 81.0317 57.4773C82.8272 57.4773 84.3556 57.9261 85.6169 58.8239C86.8783 59.7102 87.7192 60.9148 88.1397 62.4375H88.4124C88.9465 60.9375 89.9124 59.7386 91.3101 58.8409C92.7192 57.9318 94.384 57.4773 96.3044 57.4773C98.7476 57.4773 100.731 58.2557 102.253 59.8125C103.787 61.358 104.554 63.5511 104.554 66.392V84H97.3101V67.8239C97.3101 66.3693 96.9238 65.2784 96.151 64.5511C95.3783 63.8239 94.4124 63.4602 93.2533 63.4602C91.9351 63.4602 90.9067 63.8807 90.1681 64.7216C89.4294 65.5511 89.0601 66.6477 89.0601 68.0114V84H82.0203V67.6705C82.0203 66.3864 81.651 65.3636 80.9124 64.6023C80.1851 63.8409 79.2249 63.4602 78.0317 63.4602C77.2249 63.4602 76.4976 63.6648 75.8499 64.0739C75.2135 64.4716 74.7078 65.0341 74.3328 65.7614C73.9578 66.4773 73.7703 67.3182 73.7703 68.2841V84H66.509ZM109.33 93.8182V57.8182H116.489V62.2159H116.813C117.131 61.5114 117.592 60.7955 118.194 60.0682C118.808 59.3295 119.603 58.7159 120.58 58.2273C121.569 57.7273 122.796 57.4773 124.262 57.4773C126.171 57.4773 127.933 57.9773 129.546 58.9773C131.16 59.9659 132.45 61.4602 133.415 63.4602C134.381 65.4489 134.864 67.9432 134.864 70.9432C134.864 73.8636 134.393 76.3295 133.45 78.3409C132.518 80.3409 131.245 81.858 129.631 82.892C128.029 83.9148 126.234 84.4261 124.245 84.4261C122.836 84.4261 121.637 84.1932 120.648 83.7273C119.671 83.2614 118.87 82.6761 118.245 81.9716C117.62 81.2557 117.143 80.5341 116.813 79.8068H116.592V93.8182H109.33ZM116.438 70.9091C116.438 72.4659 116.654 73.8239 117.086 74.983C117.518 76.142 118.143 77.0455 118.961 77.6932C119.779 78.3295 120.773 78.6477 121.944 78.6477C123.126 78.6477 124.126 78.3239 124.944 77.6761C125.762 77.017 126.381 76.108 126.802 74.9489C127.234 73.7784 127.45 72.4318 127.45 70.9091C127.45 69.3977 127.239 68.0682 126.819 66.9205C126.398 65.7727 125.779 64.875 124.961 64.2273C124.143 63.5795 123.137 63.2557 121.944 63.2557C120.762 63.2557 119.762 63.5682 118.944 64.1932C118.137 64.8182 117.518 65.7045 117.086 66.8523C116.654 68 116.438 69.3523 116.438 70.9091ZM150.677 84.5114C147.984 84.5114 145.666 83.9659 143.723 82.875C141.791 81.7727 140.302 80.2159 139.257 78.2045C138.211 76.1818 137.688 73.7898 137.688 71.0284C137.688 68.3352 138.211 65.9716 139.257 63.9375C140.302 61.9034 141.774 60.3182 143.671 59.1818C145.58 58.0455 147.819 57.4773 150.387 57.4773C152.115 57.4773 153.723 57.7557 155.211 58.3125C156.711 58.858 158.018 59.6818 159.132 60.7841C160.257 61.8864 161.132 63.2727 161.757 64.9432C162.382 66.6023 162.694 68.5455 162.694 70.7727V72.767H140.586V68.267H155.859C155.859 67.2216 155.632 66.2955 155.177 65.4886C154.723 64.6818 154.092 64.0511 153.285 63.5966C152.49 63.1307 151.563 62.8977 150.507 62.8977C149.404 62.8977 148.427 63.1534 147.575 63.6648C146.734 64.1648 146.075 64.8409 145.598 65.6932C145.12 66.5341 144.876 67.4716 144.865 68.5057V72.7841C144.865 74.0795 145.103 75.1989 145.58 76.142C146.069 77.0852 146.757 77.8125 147.643 78.3239C148.529 78.8352 149.58 79.0909 150.796 79.0909C151.603 79.0909 152.342 78.9773 153.012 78.75C153.683 78.5227 154.257 78.1818 154.734 77.7273C155.211 77.2727 155.575 76.7159 155.825 76.0568L162.541 76.5C162.2 78.1136 161.501 79.5227 160.444 80.7273C159.399 81.9205 158.046 82.8523 156.387 83.5227C154.74 84.1818 152.836 84.5114 150.677 84.5114ZM180.399 57.8182V63.2727H164.632V57.8182H180.399ZM168.211 51.5455H175.473V75.9545C175.473 76.625 175.575 77.1477 175.78 77.5227C175.984 77.8864 176.268 78.142 176.632 78.2898C177.007 78.4375 177.439 78.5114 177.927 78.5114C178.268 78.5114 178.609 78.483 178.95 78.4261C179.291 78.358 179.552 78.3068 179.734 78.2727L180.876 83.6761C180.512 83.7898 180.001 83.9205 179.342 84.0682C178.683 84.2273 177.882 84.3239 176.939 84.358C175.189 84.4261 173.655 84.1932 172.336 83.6591C171.03 83.125 170.012 82.2955 169.285 81.1705C168.558 80.0455 168.2 78.625 168.211 76.9091V51.5455ZM184.169 84V57.8182H191.43V84H184.169ZM187.817 54.4432C186.737 54.4432 185.811 54.0852 185.038 53.3693C184.277 52.642 183.896 51.7727 183.896 50.7614C183.896 49.7614 184.277 48.9034 185.038 48.1875C185.811 47.4602 186.737 47.0966 187.817 47.0966C188.896 47.0966 189.817 47.4602 190.578 48.1875C191.351 48.9034 191.737 49.7614 191.737 50.7614C191.737 51.7727 191.351 52.642 190.578 53.3693C189.817 54.0852 188.896 54.4432 187.817 54.4432ZM210.213 57.8182V63.2727H194.446V57.8182H210.213ZM198.026 51.5455H205.287V75.9545C205.287 76.625 205.389 77.1477 205.594 77.5227C205.798 77.8864 206.083 78.142 206.446 78.2898C206.821 78.4375 207.253 78.5114 207.742 78.5114C208.083 78.5114 208.423 78.483 208.764 78.4261C209.105 78.358 209.367 78.3068 209.548 78.2727L210.691 83.6761C210.327 83.7898 209.816 83.9205 209.156 84.0682C208.497 84.2273 207.696 84.3239 206.753 84.358C205.003 84.4261 203.469 84.1932 202.151 83.6591C200.844 83.125 199.827 82.2955 199.1 81.1705C198.372 80.0455 198.014 78.625 198.026 76.9091V51.5455ZM225.532 84.5114C222.884 84.5114 220.594 83.9489 218.662 82.8239C216.742 81.6875 215.259 80.108 214.213 78.0852C213.168 76.0511 212.645 73.6932 212.645 71.0114C212.645 68.3068 213.168 65.9432 214.213 63.9205C215.259 61.8864 216.742 60.3068 218.662 59.1818C220.594 58.0455 222.884 57.4773 225.532 57.4773C228.179 57.4773 230.463 58.0455 232.384 59.1818C234.316 60.3068 235.804 61.8864 236.85 63.9205C237.895 65.9432 238.418 68.3068 238.418 71.0114C238.418 73.6932 237.895 76.0511 236.85 78.0852C235.804 80.108 234.316 81.6875 232.384 82.8239C230.463 83.9489 228.179 84.5114 225.532 84.5114ZM225.566 78.8864C226.77 78.8864 227.776 78.5455 228.583 77.8636C229.39 77.1705 229.998 76.2273 230.407 75.0341C230.827 73.8409 231.037 72.483 231.037 70.9602C231.037 69.4375 230.827 68.0795 230.407 66.8864C229.998 65.6932 229.39 64.75 228.583 64.0568C227.776 63.3636 226.77 63.017 225.566 63.017C224.35 63.017 223.327 63.3636 222.498 64.0568C221.679 64.75 221.06 65.6932 220.64 66.8864C220.231 68.0795 220.026 69.4375 220.026 70.9602C220.026 72.483 220.231 73.8409 220.64 75.0341C221.06 76.2273 221.679 77.1705 222.498 77.8636C223.327 78.5455 224.35 78.8864 225.566 78.8864ZM242.18 84V57.8182H249.219V62.3864H249.492C249.969 60.7614 250.771 59.5341 251.896 58.7045C253.021 57.8636 254.316 57.4432 255.782 57.4432C256.146 57.4432 256.538 57.4659 256.958 57.5114C257.378 57.5568 257.748 57.6193 258.066 57.6989V64.142C257.725 64.0398 257.253 63.9489 256.651 63.8693C256.049 63.7898 255.498 63.75 254.998 63.75C253.93 63.75 252.975 63.983 252.134 64.4489C251.305 64.9034 250.646 65.5398 250.157 66.358C249.68 67.1761 249.441 68.1193 249.441 69.1875V84H242.18ZM282.644 65.2841L275.997 65.6932C275.883 65.125 275.639 64.6136 275.264 64.1591C274.889 63.6932 274.394 63.3239 273.781 63.0511C273.178 62.767 272.457 62.625 271.616 62.625C270.491 62.625 269.542 62.8636 268.769 63.3409C267.997 63.8068 267.61 64.4318 267.61 65.2159C267.61 65.8409 267.86 66.3693 268.36 66.8011C268.86 67.233 269.718 67.5795 270.934 67.8409L275.673 68.7955C278.218 69.3182 280.116 70.1591 281.366 71.3182C282.616 72.4773 283.241 74 283.241 75.8864C283.241 77.6023 282.735 79.108 281.724 80.4034C280.724 81.6989 279.349 82.7102 277.599 83.4375C275.86 84.1534 273.855 84.5114 271.582 84.5114C268.116 84.5114 265.355 83.7898 263.298 82.3466C261.252 80.892 260.053 78.9148 259.701 76.4148L266.843 76.0398C267.059 77.0966 267.582 77.9034 268.411 78.4602C269.241 79.0057 270.303 79.2784 271.599 79.2784C272.872 79.2784 273.894 79.0341 274.667 78.5455C275.451 78.0455 275.849 77.4034 275.86 76.6193C275.849 75.9602 275.57 75.4205 275.025 75C274.48 74.5682 273.639 74.2386 272.502 74.0114L267.968 73.108C265.411 72.5966 263.508 71.7102 262.258 70.4489C261.019 69.1875 260.4 67.5795 260.4 65.625C260.4 63.9432 260.855 62.4943 261.764 61.2784C262.684 60.0625 263.974 59.125 265.633 58.4659C267.303 57.8068 269.258 57.4773 271.497 57.4773C274.803 57.4773 277.406 58.1761 279.303 59.5739C281.212 60.9716 282.326 62.875 282.644 65.2841ZM294.745 79.2273L294.558 81.1023C294.41 82.6023 294.126 84.0966 293.706 85.5852C293.297 87.0852 292.865 88.4432 292.41 89.6591C291.967 90.875 291.609 91.8295 291.336 92.5227H286.632C286.802 91.8523 287.035 90.9148 287.331 89.7102C287.626 88.517 287.904 87.1761 288.166 85.6875C288.427 84.1989 288.592 82.6818 288.66 81.1364L288.745 79.2273H294.745ZM332.217 60.375C331.979 59.5455 331.644 58.8125 331.212 58.1761C330.78 57.5284 330.252 56.983 329.627 56.5398C329.013 56.0852 328.308 55.7386 327.513 55.5C326.729 55.2614 325.859 55.142 324.905 55.142C323.121 55.142 321.553 55.5852 320.2 56.4716C318.859 57.358 317.814 58.6477 317.064 60.3409C316.314 62.0227 315.939 64.0795 315.939 66.5114C315.939 68.9432 316.308 71.0114 317.047 72.7159C317.786 74.4205 318.831 75.7216 320.183 76.6193C321.536 77.5057 323.132 77.9489 324.973 77.9489C326.644 77.9489 328.07 77.6534 329.252 77.0625C330.445 76.4602 331.354 75.6136 331.979 74.5227C332.615 73.4318 332.933 72.142 332.933 70.6534L334.433 70.875H325.433V65.3182H340.041V69.7159C340.041 72.7841 339.394 75.4205 338.098 77.625C336.803 79.8182 335.019 81.5114 332.746 82.7045C330.473 83.8864 327.871 84.4773 324.939 84.4773C321.666 84.4773 318.791 83.7557 316.314 82.3125C313.837 80.858 311.905 78.7955 310.519 76.125C309.144 73.4432 308.456 70.2614 308.456 66.5795C308.456 63.75 308.865 61.2273 309.683 59.0114C310.513 56.7841 311.672 54.8977 313.161 53.3523C314.649 51.8068 316.382 50.6307 318.359 49.8239C320.337 49.017 322.479 48.6136 324.786 48.6136C326.763 48.6136 328.604 48.9034 330.308 49.483C332.013 50.0511 333.524 50.858 334.842 51.9034C336.172 52.9489 337.257 54.1932 338.098 55.6364C338.939 57.0682 339.479 58.6477 339.717 60.375H332.217ZM356.319 84.5114C353.671 84.5114 351.381 83.9489 349.449 82.8239C347.529 81.6875 346.046 80.108 345 78.0852C343.955 76.0511 343.432 73.6932 343.432 71.0114C343.432 68.3068 343.955 65.9432 345 63.9205C346.046 61.8864 347.529 60.3068 349.449 59.1818C351.381 58.0455 353.671 57.4773 356.319 57.4773C358.966 57.4773 361.25 58.0455 363.171 59.1818C365.103 60.3068 366.591 61.8864 367.637 63.9205C368.682 65.9432 369.205 68.3068 369.205 71.0114C369.205 73.6932 368.682 76.0511 367.637 78.0852C366.591 80.108 365.103 81.6875 363.171 82.8239C361.25 83.9489 358.966 84.5114 356.319 84.5114ZM356.353 78.8864C357.557 78.8864 358.563 78.5455 359.37 77.8636C360.176 77.1705 360.784 76.2273 361.194 75.0341C361.614 73.8409 361.824 72.483 361.824 70.9602C361.824 69.4375 361.614 68.0795 361.194 66.8864C360.784 65.6932 360.176 64.75 359.37 64.0568C358.563 63.3636 357.557 63.017 356.353 63.017C355.137 63.017 354.114 63.3636 353.284 64.0568C352.466 64.75 351.847 65.6932 351.426 66.8864C351.017 68.0795 350.813 69.4375 350.813 70.9602C350.813 72.483 351.017 73.8409 351.426 75.0341C351.847 76.2273 352.466 77.1705 353.284 77.8636C354.114 78.5455 355.137 78.8864 356.353 78.8864ZM380.432 84.4943C378.762 84.4943 377.273 84.2045 375.966 83.625C374.66 83.0341 373.626 82.1648 372.864 81.017C372.114 79.858 371.739 78.4148 371.739 76.6875C371.739 75.233 372.006 74.0114 372.54 73.0227C373.074 72.0341 373.802 71.2386 374.722 70.6364C375.643 70.0341 376.688 69.5795 377.859 69.2727C379.04 68.9659 380.279 68.75 381.574 68.625C383.097 68.4659 384.324 68.3182 385.256 68.1818C386.188 68.0341 386.864 67.8182 387.285 67.5341C387.705 67.25 387.915 66.8295 387.915 66.2727V66.1705C387.915 65.0909 387.574 64.2557 386.893 63.6648C386.222 63.0739 385.268 62.7784 384.029 62.7784C382.722 62.7784 381.682 63.0682 380.91 63.6477C380.137 64.2159 379.626 64.9318 379.376 65.7955L372.66 65.25C373.001 63.6591 373.671 62.2841 374.671 61.125C375.671 59.9545 376.961 59.0568 378.54 58.4318C380.131 57.7955 381.972 57.4773 384.063 57.4773C385.518 57.4773 386.91 57.6477 388.239 57.9886C389.58 58.3295 390.768 58.858 391.802 59.5739C392.847 60.2898 393.671 61.2102 394.273 62.3352C394.876 63.4489 395.177 64.7841 395.177 66.3409V84H388.29V80.3693H388.086C387.665 81.1875 387.103 81.9091 386.398 82.5341C385.694 83.1477 384.847 83.6307 383.859 83.983C382.87 84.3239 381.728 84.4943 380.432 84.4943ZM382.512 79.483C383.58 79.483 384.523 79.2727 385.341 78.8523C386.16 78.4205 386.802 77.8409 387.268 77.1136C387.734 76.3864 387.966 75.5625 387.966 74.642V71.8636C387.739 72.0114 387.427 72.1477 387.029 72.2727C386.643 72.3864 386.205 72.4943 385.716 72.5966C385.228 72.6875 384.739 72.7727 384.251 72.8523C383.762 72.9205 383.319 72.983 382.921 73.0398C382.069 73.1648 381.324 73.3636 380.688 73.6364C380.052 73.9091 379.557 74.2784 379.205 74.7443C378.853 75.1989 378.677 75.767 378.677 76.4489C378.677 77.4375 379.035 78.1932 379.751 78.7159C380.478 79.2273 381.398 79.483 382.512 79.483ZM407.112 49.0909V84H399.85V49.0909H407.112ZM433.752 65.2841L427.105 65.6932C426.991 65.125 426.747 64.6136 426.372 64.1591C425.997 63.6932 425.502 63.3239 424.889 63.0511C424.287 62.767 423.565 62.625 422.724 62.625C421.599 62.625 420.65 62.8636 419.877 63.3409C419.105 63.8068 418.718 64.4318 418.718 65.2159C418.718 65.8409 418.968 66.3693 419.468 66.8011C419.968 67.233 420.826 67.5795 422.042 67.8409L426.781 68.7955C429.326 69.3182 431.224 70.1591 432.474 71.3182C433.724 72.4773 434.349 74 434.349 75.8864C434.349 77.6023 433.843 79.108 432.832 80.4034C431.832 81.6989 430.457 82.7102 428.707 83.4375C426.968 84.1534 424.963 84.5114 422.69 84.5114C419.224 84.5114 416.463 83.7898 414.406 82.3466C412.36 80.892 411.162 78.9148 410.809 76.4148L417.951 76.0398C418.167 77.0966 418.69 77.9034 419.519 78.4602C420.349 79.0057 421.412 79.2784 422.707 79.2784C423.98 79.2784 425.002 79.0341 425.775 78.5455C426.559 78.0455 426.957 77.4034 426.968 76.6193C426.957 75.9602 426.679 75.4205 426.133 75C425.588 74.5682 424.747 74.2386 423.61 74.0114L419.076 73.108C416.519 72.5966 414.616 71.7102 413.366 70.4489C412.127 69.1875 411.508 67.5795 411.508 65.625C411.508 63.9432 411.963 62.4943 412.872 61.2784C413.792 60.0625 415.082 59.125 416.741 58.4659C418.412 57.8068 420.366 57.4773 422.605 57.4773C425.912 57.4773 428.514 58.1761 430.412 59.5739C432.321 60.9716 433.434 62.875 433.752 65.2841ZM445.854 79.2273L445.666 81.1023C445.518 82.6023 445.234 84.0966 444.814 85.5852C444.405 87.0852 443.973 88.4432 443.518 89.6591C443.075 90.875 442.717 91.8295 442.444 92.5227H437.74C437.91 91.8523 438.143 90.9148 438.439 89.7102C438.734 88.517 439.013 87.1761 439.274 85.6875C439.535 84.1989 439.7 82.6818 439.768 81.1364L439.854 79.2273H445.854ZM466.195 84H458.286L470.337 49.0909H479.848L491.882 84H483.973L475.229 57.0682H474.956L466.195 84ZM465.701 70.2784H484.382V76.0398H465.701V70.2784ZM502.249 68.8636V84H494.988V57.8182H501.908V62.4375H502.215C502.795 60.9148 503.766 59.7102 505.13 58.8239C506.493 57.9261 508.147 57.4773 510.09 57.4773C511.908 57.4773 513.493 57.875 514.846 58.6705C516.198 59.4659 517.249 60.6023 517.999 62.0795C518.749 63.5455 519.124 65.2955 519.124 67.3295V84H511.863V68.625C511.874 67.0227 511.465 65.7727 510.635 64.875C509.806 63.9659 508.664 63.5114 507.209 63.5114C506.232 63.5114 505.368 63.7216 504.618 64.142C503.88 64.5625 503.3 65.1761 502.88 65.983C502.471 66.7784 502.26 67.7386 502.249 68.8636ZM533.535 84.4261C531.546 84.4261 529.745 83.9148 528.131 82.892C526.529 81.858 525.256 80.3409 524.313 78.3409C523.381 76.3295 522.916 73.8636 522.916 70.9432C522.916 67.9432 523.398 65.4489 524.364 63.4602C525.33 61.4602 526.614 59.9659 528.217 58.9773C529.83 57.9773 531.597 57.4773 533.518 57.4773C534.984 57.4773 536.205 57.7273 537.183 58.2273C538.171 58.7159 538.967 59.3295 539.569 60.0682C540.183 60.7955 540.648 61.5114 540.967 62.2159H541.188V49.0909H548.433V84H541.273V79.8068H540.967C540.626 80.5341 540.143 81.2557 539.518 81.9716C538.904 82.6761 538.103 83.2614 537.114 83.7273C536.137 84.1932 534.944 84.4261 533.535 84.4261ZM535.836 78.6477C537.006 78.6477 537.995 78.3295 538.802 77.6932C539.62 77.0455 540.245 76.142 540.677 74.983C541.12 73.8239 541.342 72.4659 541.342 70.9091C541.342 69.3523 541.126 68 540.694 66.8523C540.262 65.7045 539.637 64.8182 538.819 64.1932C538.001 63.5682 537.006 63.2557 535.836 63.2557C534.643 63.2557 533.637 63.5795 532.819 64.2273C532.001 64.875 531.381 65.7727 530.961 66.9205C530.541 68.0682 530.33 69.3977 530.33 70.9091C530.33 72.4318 530.541 73.7784 530.961 74.9489C531.393 76.108 532.012 77.017 532.819 77.6761C533.637 78.3239 534.643 78.6477 535.836 78.6477ZM21.9716 107.131C21.8352 105.756 21.25 104.687 20.2159 103.926C19.1818 103.165 17.7784 102.784 16.0057 102.784C14.8011 102.784 13.7841 102.955 12.9545 103.295C12.125 103.625 11.4886 104.085 11.0455 104.676C10.6136 105.267 10.3977 105.938 10.3977 106.688C10.375 107.312 10.5057 107.858 10.7898 108.324C11.0852 108.79 11.4886 109.193 12 109.534C12.5114 109.864 13.1023 110.153 13.7727 110.403C14.4432 110.642 15.1591 110.847 15.9205 111.017L19.0568 111.767C20.5795 112.108 21.9773 112.562 23.25 113.131C24.5227 113.699 25.625 114.398 26.5568 115.227C27.4886 116.057 28.2102 117.034 28.7216 118.159C29.2443 119.284 29.5114 120.574 29.5227 122.028C29.5114 124.165 28.9659 126.017 27.8864 127.585C26.8182 129.142 25.2727 130.352 23.25 131.216C21.2386 132.068 18.8125 132.494 15.9716 132.494C13.1534 132.494 10.6989 132.062 8.60795 131.199C6.52841 130.335 4.90341 129.057 3.73295 127.364C2.57386 125.659 1.96591 123.551 1.90909 121.04H9.05114C9.13068 122.21 9.46591 123.187 10.0568 123.972C10.6591 124.744 11.4602 125.33 12.4602 125.727C13.4716 126.114 14.6136 126.307 15.8864 126.307C17.1364 126.307 18.2216 126.125 19.142 125.761C20.0739 125.398 20.7955 124.892 21.3068 124.244C21.8182 123.597 22.0739 122.852 22.0739 122.011C22.0739 121.227 21.8409 120.568 21.375 120.034C20.9205 119.5 20.25 119.045 19.3636 118.67C18.4886 118.295 17.4148 117.955 16.142 117.648L12.3409 116.693C9.39773 115.977 7.07386 114.858 5.36932 113.335C3.66477 111.812 2.81818 109.761 2.82955 107.182C2.81818 105.068 3.38068 103.222 4.51705 101.642C5.66477 100.062 7.23864 98.8295 9.23864 97.9432C11.2386 97.0568 13.5114 96.6136 16.0568 96.6136C18.6477 96.6136 20.9091 97.0568 22.8409 97.9432C24.7841 98.8295 26.2955 100.062 27.375 101.642C28.4545 103.222 29.0114 105.051 29.0455 107.131H21.9716ZM40.8568 132.494C39.1863 132.494 37.6977 132.205 36.3909 131.625C35.084 131.034 34.0499 130.165 33.2886 129.017C32.5386 127.858 32.1636 126.415 32.1636 124.688C32.1636 123.233 32.4306 122.011 32.9647 121.023C33.4988 120.034 34.2261 119.239 35.1465 118.636C36.067 118.034 37.1124 117.58 38.2829 117.273C39.4647 116.966 40.7034 116.75 41.9988 116.625C43.5215 116.466 44.7488 116.318 45.6806 116.182C46.6124 116.034 47.2886 115.818 47.709 115.534C48.1295 115.25 48.3397 114.83 48.3397 114.273V114.17C48.3397 113.091 47.9988 112.256 47.317 111.665C46.6465 111.074 45.692 110.778 44.4534 110.778C43.1465 110.778 42.1068 111.068 41.334 111.648C40.5613 112.216 40.0499 112.932 39.7999 113.795L33.084 113.25C33.4249 111.659 34.0954 110.284 35.0954 109.125C36.0954 107.955 37.3852 107.057 38.9647 106.432C40.5556 105.795 42.3965 105.477 44.4874 105.477C45.942 105.477 47.334 105.648 48.6636 105.989C50.0045 106.33 51.192 106.858 52.2261 107.574C53.2715 108.29 54.0954 109.21 54.6977 110.335C55.2999 111.449 55.6011 112.784 55.6011 114.341V132H48.7147V128.369H48.5102C48.0897 129.188 47.5272 129.909 46.8227 130.534C46.1181 131.148 45.2715 131.631 44.2829 131.983C43.2943 132.324 42.1522 132.494 40.8568 132.494ZM42.9363 127.483C44.0045 127.483 44.9477 127.273 45.7659 126.852C46.584 126.42 47.2261 125.841 47.692 125.114C48.1579 124.386 48.3909 123.562 48.3909 122.642V119.864C48.1636 120.011 47.8511 120.148 47.4534 120.273C47.067 120.386 46.6295 120.494 46.1409 120.597C45.6522 120.687 45.1636 120.773 44.6749 120.852C44.1863 120.92 43.7431 120.983 43.3454 121.04C42.4931 121.165 41.7488 121.364 41.1124 121.636C40.4761 121.909 39.9818 122.278 39.6295 122.744C39.2772 123.199 39.1011 123.767 39.1011 124.449C39.1011 125.438 39.459 126.193 40.1749 126.716C40.9022 127.227 41.8227 127.483 42.9363 127.483ZM67.536 97.0909V132H60.2746V97.0909H67.536ZM84.3245 132.511C81.6314 132.511 79.3132 131.966 77.37 130.875C75.4382 129.773 73.9495 128.216 72.9041 126.205C71.8586 124.182 71.3359 121.79 71.3359 119.028C71.3359 116.335 71.8586 113.972 72.9041 111.938C73.9495 109.903 75.4211 108.318 77.3189 107.182C79.228 106.045 81.4666 105.477 84.0348 105.477C85.762 105.477 87.37 105.756 88.8586 106.312C90.3586 106.858 91.6655 107.682 92.7791 108.784C93.9041 109.886 94.7791 111.273 95.4041 112.943C96.0291 114.602 96.3416 116.545 96.3416 118.773V120.767H74.2336V116.267H89.5064C89.5064 115.222 89.2791 114.295 88.8245 113.489C88.37 112.682 87.7393 112.051 86.9325 111.597C86.137 111.131 85.2109 110.898 84.1541 110.898C83.0518 110.898 82.0745 111.153 81.2223 111.665C80.3814 112.165 79.7223 112.841 79.245 113.693C78.7677 114.534 78.5234 115.472 78.512 116.506V120.784C78.512 122.08 78.7507 123.199 79.228 124.142C79.7166 125.085 80.4041 125.812 81.2905 126.324C82.1768 126.835 83.228 127.091 84.4439 127.091C85.2507 127.091 85.9893 126.977 86.6598 126.75C87.3302 126.523 87.9041 126.182 88.3814 125.727C88.8586 125.273 89.2223 124.716 89.4723 124.057L96.1882 124.5C95.8473 126.114 95.1484 127.523 94.0916 128.727C93.0461 129.92 91.6939 130.852 90.0348 131.523C88.387 132.182 86.4836 132.511 84.3245 132.511ZM121.904 113.284L115.257 113.693C115.143 113.125 114.899 112.614 114.524 112.159C114.149 111.693 113.654 111.324 113.041 111.051C112.438 110.767 111.717 110.625 110.876 110.625C109.751 110.625 108.802 110.864 108.029 111.341C107.257 111.807 106.87 112.432 106.87 113.216C106.87 113.841 107.12 114.369 107.62 114.801C108.12 115.233 108.978 115.58 110.194 115.841L114.933 116.795C117.478 117.318 119.376 118.159 120.626 119.318C121.876 120.477 122.501 122 122.501 123.886C122.501 125.602 121.995 127.108 120.984 128.403C119.984 129.699 118.609 130.71 116.859 131.438C115.12 132.153 113.115 132.511 110.842 132.511C107.376 132.511 104.615 131.79 102.558 130.347C100.512 128.892 99.3134 126.915 98.9611 124.415L106.103 124.04C106.319 125.097 106.842 125.903 107.671 126.46C108.501 127.006 109.563 127.278 110.859 127.278C112.132 127.278 113.154 127.034 113.927 126.545C114.711 126.045 115.109 125.403 115.12 124.619C115.109 123.96 114.83 123.42 114.285 123C113.74 122.568 112.899 122.239 111.762 122.011L107.228 121.108C104.671 120.597 102.768 119.71 101.518 118.449C100.279 117.187 99.66 115.58 99.66 113.625C99.66 111.943 100.115 110.494 101.024 109.278C101.944 108.062 103.234 107.125 104.893 106.466C106.563 105.807 108.518 105.477 110.757 105.477C114.063 105.477 116.666 106.176 118.563 107.574C120.473 108.972 121.586 110.875 121.904 113.284ZM136.399 132V97.0909H150.172C152.808 97.0909 155.058 97.5625 156.922 98.5057C158.797 99.4375 160.223 100.761 161.2 102.477C162.189 104.182 162.683 106.187 162.683 108.494C162.683 110.812 162.183 112.807 161.183 114.477C160.183 116.136 158.734 117.409 156.837 118.295C154.95 119.182 152.666 119.625 149.984 119.625H140.763V113.693H148.791C150.2 113.693 151.371 113.5 152.303 113.114C153.234 112.727 153.928 112.148 154.382 111.375C154.848 110.602 155.081 109.642 155.081 108.494C155.081 107.335 154.848 106.358 154.382 105.562C153.928 104.767 153.229 104.165 152.285 103.756C151.354 103.335 150.178 103.125 148.757 103.125H143.78V132H136.399ZM155.251 116.114L163.928 132H155.78L147.291 116.114H155.251ZM178.313 132.511C175.619 132.511 173.301 131.966 171.358 130.875C169.426 129.773 167.938 128.216 166.892 126.205C165.847 124.182 165.324 121.79 165.324 119.028C165.324 116.335 165.847 113.972 166.892 111.938C167.938 109.903 169.409 108.318 171.307 107.182C173.216 106.045 175.455 105.477 178.023 105.477C179.75 105.477 181.358 105.756 182.847 106.312C184.347 106.858 185.654 107.682 186.767 108.784C187.892 109.886 188.767 111.273 189.392 112.943C190.017 114.602 190.33 116.545 190.33 118.773V120.767H168.222V116.267H183.494C183.494 115.222 183.267 114.295 182.813 113.489C182.358 112.682 181.727 112.051 180.921 111.597C180.125 111.131 179.199 110.898 178.142 110.898C177.04 110.898 176.063 111.153 175.21 111.665C174.369 112.165 173.71 112.841 173.233 113.693C172.756 114.534 172.512 115.472 172.5 116.506V120.784C172.5 122.08 172.739 123.199 173.216 124.142C173.705 125.085 174.392 125.812 175.279 126.324C176.165 126.835 177.216 127.091 178.432 127.091C179.239 127.091 179.977 126.977 180.648 126.75C181.318 126.523 181.892 126.182 182.369 125.727C182.847 125.273 183.21 124.716 183.46 124.057L190.176 124.5C189.835 126.114 189.137 127.523 188.08 128.727C187.034 129.92 185.682 130.852 184.023 131.523C182.375 132.182 180.472 132.511 178.313 132.511ZM205.938 132.511C203.256 132.511 200.949 131.943 199.017 130.807C197.097 129.659 195.62 128.068 194.586 126.034C193.563 124 193.052 121.659 193.052 119.011C193.052 116.33 193.569 113.977 194.603 111.955C195.648 109.92 197.131 108.335 199.052 107.199C200.972 106.051 203.256 105.477 205.904 105.477C208.188 105.477 210.188 105.892 211.904 106.722C213.62 107.551 214.978 108.716 215.978 110.216C216.978 111.716 217.529 113.477 217.631 115.5H210.779C210.586 114.193 210.074 113.142 209.245 112.347C208.427 111.54 207.353 111.136 206.023 111.136C204.898 111.136 203.915 111.443 203.074 112.057C202.245 112.659 201.597 113.54 201.131 114.699C200.665 115.858 200.432 117.261 200.432 118.909C200.432 120.58 200.659 122 201.114 123.17C201.58 124.341 202.233 125.233 203.074 125.847C203.915 126.46 204.898 126.767 206.023 126.767C206.853 126.767 207.597 126.597 208.256 126.256C208.927 125.915 209.478 125.42 209.909 124.773C210.353 124.114 210.642 123.324 210.779 122.403H217.631C217.517 124.403 216.972 126.165 215.995 127.688C215.029 129.199 213.694 130.381 211.989 131.233C210.284 132.085 208.267 132.511 205.938 132.511ZM233.15 132.511C230.502 132.511 228.212 131.949 226.28 130.824C224.36 129.687 222.877 128.108 221.832 126.085C220.786 124.051 220.263 121.693 220.263 119.011C220.263 116.307 220.786 113.943 221.832 111.92C222.877 109.886 224.36 108.307 226.28 107.182C228.212 106.045 230.502 105.477 233.15 105.477C235.798 105.477 238.082 106.045 240.002 107.182C241.934 108.307 243.423 109.886 244.468 111.92C245.513 113.943 246.036 116.307 246.036 119.011C246.036 121.693 245.513 124.051 244.468 126.085C243.423 128.108 241.934 129.687 240.002 130.824C238.082 131.949 235.798 132.511 233.15 132.511ZM233.184 126.886C234.388 126.886 235.394 126.545 236.201 125.864C237.008 125.17 237.616 124.227 238.025 123.034C238.445 121.841 238.655 120.483 238.655 118.96C238.655 117.438 238.445 116.08 238.025 114.886C237.616 113.693 237.008 112.75 236.201 112.057C235.394 111.364 234.388 111.017 233.184 111.017C231.968 111.017 230.945 111.364 230.116 112.057C229.298 112.75 228.678 113.693 228.258 114.886C227.849 116.08 227.644 117.438 227.644 118.96C227.644 120.483 227.849 121.841 228.258 123.034C228.678 124.227 229.298 125.17 230.116 125.864C230.945 126.545 231.968 126.886 233.184 126.886ZM249.798 132V105.818H256.837V110.386H257.11C257.587 108.761 258.389 107.534 259.514 106.705C260.639 105.864 261.934 105.443 263.4 105.443C263.764 105.443 264.156 105.466 264.576 105.511C264.997 105.557 265.366 105.619 265.684 105.699V112.142C265.343 112.04 264.872 111.949 264.269 111.869C263.667 111.79 263.116 111.75 262.616 111.75C261.548 111.75 260.593 111.983 259.752 112.449C258.923 112.903 258.264 113.54 257.775 114.358C257.298 115.176 257.059 116.119 257.059 117.188V132H249.798ZM276.907 132.426C274.919 132.426 273.118 131.915 271.504 130.892C269.902 129.858 268.629 128.341 267.686 126.341C266.754 124.33 266.288 121.864 266.288 118.943C266.288 115.943 266.771 113.449 267.737 111.46C268.703 109.46 269.987 107.966 271.589 106.977C273.203 105.977 274.97 105.477 276.89 105.477C278.356 105.477 279.578 105.727 280.555 106.227C281.544 106.716 282.339 107.33 282.941 108.068C283.555 108.795 284.021 109.511 284.339 110.216H284.561V97.0909H291.805V132H284.646V127.807H284.339C283.998 128.534 283.515 129.256 282.89 129.972C282.277 130.676 281.476 131.261 280.487 131.727C279.51 132.193 278.316 132.426 276.907 132.426ZM279.208 126.648C280.379 126.648 281.368 126.33 282.174 125.693C282.993 125.045 283.618 124.142 284.049 122.983C284.493 121.824 284.714 120.466 284.714 118.909C284.714 117.352 284.498 116 284.066 114.852C283.635 113.705 283.01 112.818 282.191 112.193C281.373 111.568 280.379 111.256 279.208 111.256C278.015 111.256 277.01 111.58 276.191 112.227C275.373 112.875 274.754 113.773 274.333 114.92C273.913 116.068 273.703 117.398 273.703 118.909C273.703 120.432 273.913 121.778 274.333 122.949C274.765 124.108 275.385 125.017 276.191 125.676C277.01 126.324 278.015 126.648 279.208 126.648ZM318.599 113.284L311.952 113.693C311.838 113.125 311.594 112.614 311.219 112.159C310.844 111.693 310.349 111.324 309.736 111.051C309.133 110.767 308.412 110.625 307.571 110.625C306.446 110.625 305.497 110.864 304.724 111.341C303.952 111.807 303.565 112.432 303.565 113.216C303.565 113.841 303.815 114.369 304.315 114.801C304.815 115.233 305.673 115.58 306.889 115.841L311.628 116.795C314.173 117.318 316.071 118.159 317.321 119.318C318.571 120.477 319.196 122 319.196 123.886C319.196 125.602 318.69 127.108 317.679 128.403C316.679 129.699 315.304 130.71 313.554 131.438C311.815 132.153 309.81 132.511 307.537 132.511C304.071 132.511 301.31 131.79 299.253 130.347C297.207 128.892 296.008 126.915 295.656 124.415L302.798 124.04C303.014 125.097 303.537 125.903 304.366 126.46C305.196 127.006 306.258 127.278 307.554 127.278C308.827 127.278 309.849 127.034 310.622 126.545C311.406 126.045 311.804 125.403 311.815 124.619C311.804 123.96 311.525 123.42 310.98 123C310.435 122.568 309.594 122.239 308.457 122.011L303.923 121.108C301.366 120.597 299.463 119.71 298.213 118.449C296.974 117.187 296.355 115.58 296.355 113.625C296.355 111.943 296.81 110.494 297.719 109.278C298.639 108.062 299.929 107.125 301.588 106.466C303.258 105.807 305.213 105.477 307.452 105.477C310.758 105.477 313.361 106.176 315.258 107.574C317.168 108.972 318.281 110.875 318.599 113.284ZM349.27 111.665V117.426H333.35V111.665H349.27ZM372.641 132L362.653 97.0909H370.715L376.494 121.347H376.783L383.158 97.0909H390.062L396.42 121.398H396.727L402.505 97.0909H410.568L400.579 132H393.386L386.738 109.176H386.465L379.835 132H372.641ZM413.421 132V105.818H420.683V132H413.421ZM417.069 102.443C415.99 102.443 415.064 102.085 414.291 101.369C413.529 100.642 413.149 99.7727 413.149 98.7614C413.149 97.7614 413.529 96.9034 414.291 96.1875C415.064 95.4602 415.99 95.0966 417.069 95.0966C418.149 95.0966 419.069 95.4602 419.831 96.1875C420.603 96.9034 420.99 97.7614 420.99 98.7614C420.99 99.7727 420.603 100.642 419.831 101.369C419.069 102.085 418.149 102.443 417.069 102.443ZM439.466 105.818V111.273H423.699V105.818H439.466ZM427.278 99.5455H434.54V123.955C434.54 124.625 434.642 125.148 434.846 125.523C435.051 125.886 435.335 126.142 435.699 126.29C436.074 126.437 436.506 126.511 436.994 126.511C437.335 126.511 437.676 126.483 438.017 126.426C438.358 126.358 438.619 126.307 438.801 126.273L439.943 131.676C439.579 131.79 439.068 131.92 438.409 132.068C437.75 132.227 436.949 132.324 436.006 132.358C434.256 132.426 432.721 132.193 431.403 131.659C430.096 131.125 429.079 130.295 428.352 129.17C427.625 128.045 427.267 126.625 427.278 124.909V99.5455ZM451.06 116.864V132H443.798V97.0909H450.855V110.438H451.162C451.753 108.892 452.707 107.682 454.026 106.807C455.344 105.92 456.997 105.477 458.986 105.477C460.804 105.477 462.389 105.875 463.742 106.67C465.105 107.455 466.162 108.585 466.912 110.062C467.673 111.528 468.048 113.284 468.037 115.33V132H460.776V116.625C460.787 115.011 460.378 113.756 459.548 112.858C458.73 111.96 457.582 111.511 456.105 111.511C455.117 111.511 454.242 111.722 453.48 112.142C452.73 112.562 452.139 113.176 451.707 113.983C451.287 114.778 451.071 115.739 451.06 116.864ZM484.621 132.511C481.973 132.511 479.684 131.949 477.752 130.824C475.831 129.687 474.348 128.108 473.303 126.085C472.257 124.051 471.735 121.693 471.735 119.011C471.735 116.307 472.257 113.943 473.303 111.92C474.348 109.886 475.831 108.307 477.752 107.182C479.684 106.045 481.973 105.477 484.621 105.477C487.269 105.477 489.553 106.045 491.473 107.182C493.405 108.307 494.894 109.886 495.939 111.92C496.985 113.943 497.507 116.307 497.507 119.011C497.507 121.693 496.985 124.051 495.939 126.085C494.894 128.108 493.405 129.687 491.473 130.824C489.553 131.949 487.269 132.511 484.621 132.511ZM484.655 126.886C485.86 126.886 486.865 126.545 487.672 125.864C488.479 125.17 489.087 124.227 489.496 123.034C489.916 121.841 490.127 120.483 490.127 118.96C490.127 117.438 489.916 116.08 489.496 114.886C489.087 113.693 488.479 112.75 487.672 112.057C486.865 111.364 485.86 111.017 484.655 111.017C483.439 111.017 482.416 111.364 481.587 112.057C480.769 112.75 480.149 113.693 479.729 114.886C479.32 116.08 479.115 117.438 479.115 118.96C479.115 120.483 479.32 121.841 479.729 123.034C480.149 124.227 480.769 125.17 481.587 125.864C482.416 126.545 483.439 126.886 484.655 126.886ZM518.059 120.852V105.818H525.32V132H518.349V127.244H518.076C517.485 128.778 516.502 130.011 515.127 130.943C513.763 131.875 512.099 132.341 510.133 132.341C508.383 132.341 506.843 131.943 505.513 131.148C504.184 130.352 503.144 129.222 502.394 127.756C501.655 126.29 501.28 124.534 501.269 122.489V105.818H508.53V121.193C508.542 122.739 508.956 123.96 509.775 124.858C510.593 125.756 511.689 126.205 513.064 126.205C513.939 126.205 514.758 126.006 515.519 125.608C516.28 125.199 516.894 124.597 517.36 123.801C517.837 123.006 518.07 122.023 518.059 120.852ZM544.094 105.818V111.273H528.327V105.818H544.094ZM531.907 99.5455H539.168V123.955C539.168 124.625 539.271 125.148 539.475 125.523C539.68 125.886 539.964 126.142 540.327 126.29C540.702 126.437 541.134 126.511 541.623 126.511C541.964 126.511 542.305 126.483 542.646 126.426C542.987 126.358 543.248 126.307 543.43 126.273L544.572 131.676C544.208 131.79 543.697 131.92 543.038 132.068C542.379 132.227 541.577 132.324 540.634 132.358C538.884 132.426 537.35 132.193 536.032 131.659C534.725 131.125 533.708 130.295 532.981 129.17C532.254 128.045 531.896 126.625 531.907 124.909V99.5455ZM1.70455 151.176V145.091H30.375V151.176H19.6875V180H12.392V151.176H1.70455ZM41.2616 164.864V180H34.0002V145.091H41.057V158.438H41.3639C41.9548 156.892 42.9093 155.682 44.2275 154.807C45.5457 153.92 47.1991 153.477 49.1877 153.477C51.0059 153.477 52.5911 153.875 53.9434 154.67C55.307 155.455 56.3639 156.585 57.1139 158.062C57.8752 159.528 58.2502 161.284 58.2389 163.33V180H50.9775V164.625C50.9889 163.011 50.5798 161.756 49.7502 160.858C48.932 159.96 47.7843 159.511 46.307 159.511C45.3184 159.511 44.4434 159.722 43.682 160.142C42.932 160.562 42.3411 161.176 41.9093 161.983C41.4889 162.778 41.273 163.739 41.2616 164.864ZM74.9252 180.511C72.232 180.511 69.9138 179.966 67.9706 178.875C66.0388 177.773 64.5502 176.216 63.5047 174.205C62.4593 172.182 61.9365 169.79 61.9365 167.028C61.9365 164.335 62.4593 161.972 63.5047 159.938C64.5502 157.903 66.0218 156.318 67.9195 155.182C69.8286 154.045 72.0672 153.477 74.6354 153.477C76.3627 153.477 77.9706 153.756 79.4593 154.312C80.9593 154.858 82.2661 155.682 83.3797 156.784C84.5047 157.886 85.3797 159.273 86.0047 160.943C86.6297 162.602 86.9422 164.545 86.9422 166.773V168.767H64.8343V164.267H80.107C80.107 163.222 79.8797 162.295 79.4252 161.489C78.9706 160.682 78.3399 160.051 77.5331 159.597C76.7377 159.131 75.8115 158.898 74.7547 158.898C73.6524 158.898 72.6752 159.153 71.8229 159.665C70.982 160.165 70.3229 160.841 69.8456 161.693C69.3684 162.534 69.124 163.472 69.1127 164.506V168.784C69.1127 170.08 69.3513 171.199 69.8286 172.142C70.3172 173.085 71.0047 173.812 71.8911 174.324C72.7774 174.835 73.8286 175.091 75.0445 175.091C75.8513 175.091 76.5899 174.977 77.2604 174.75C77.9309 174.523 78.5047 174.182 78.982 173.727C79.4593 173.273 79.8229 172.716 80.0729 172.057L86.7888 172.5C86.4479 174.114 85.749 175.523 84.6922 176.727C83.6468 177.92 82.2945 178.852 80.6354 179.523C78.9877 180.182 77.0843 180.511 74.9252 180.511ZM101.007 180V145.091H114.984C117.552 145.091 119.694 145.472 121.41 146.233C123.126 146.994 124.416 148.051 125.279 149.403C126.143 150.744 126.575 152.29 126.575 154.04C126.575 155.403 126.302 156.602 125.757 157.636C125.211 158.659 124.461 159.5 123.507 160.159C122.563 160.807 121.484 161.267 120.268 161.54V161.881C121.598 161.937 122.842 162.312 124.001 163.006C125.171 163.699 126.12 164.67 126.848 165.92C127.575 167.159 127.938 168.636 127.938 170.352C127.938 172.205 127.478 173.858 126.558 175.312C125.649 176.756 124.302 177.898 122.518 178.739C120.734 179.58 118.535 180 115.921 180H101.007ZM108.387 173.966H114.404C116.461 173.966 117.961 173.574 118.904 172.79C119.848 171.994 120.319 170.937 120.319 169.619C120.319 168.653 120.086 167.801 119.62 167.062C119.154 166.324 118.49 165.744 117.626 165.324C116.774 164.903 115.757 164.693 114.575 164.693H108.387V173.966ZM108.387 159.699H113.859C114.87 159.699 115.768 159.523 116.552 159.17C117.348 158.807 117.973 158.295 118.427 157.636C118.893 156.977 119.126 156.188 119.126 155.267C119.126 154.006 118.677 152.989 117.779 152.216C116.893 151.443 115.632 151.057 113.995 151.057H108.387V159.699ZM135.889 180.443C134.764 180.443 133.798 180.045 132.991 179.25C132.196 178.443 131.798 177.477 131.798 176.352C131.798 175.239 132.196 174.284 132.991 173.489C133.798 172.693 134.764 172.295 135.889 172.295C136.98 172.295 137.934 172.693 138.753 173.489C139.571 174.284 139.98 175.239 139.98 176.352C139.98 177.102 139.787 177.79 139.4 178.415C139.025 179.028 138.531 179.523 137.917 179.898C137.304 180.261 136.628 180.443 135.889 180.443ZM164.055 155.131C163.919 153.756 163.334 152.687 162.3 151.926C161.266 151.165 159.862 150.784 158.089 150.784C156.885 150.784 155.868 150.955 155.038 151.295C154.209 151.625 153.572 152.085 153.129 152.676C152.697 153.267 152.481 153.938 152.481 154.688C152.459 155.312 152.589 155.858 152.874 156.324C153.169 156.79 153.572 157.193 154.084 157.534C154.595 157.864 155.186 158.153 155.856 158.403C156.527 158.642 157.243 158.847 158.004 159.017L161.141 159.767C162.663 160.108 164.061 160.562 165.334 161.131C166.606 161.699 167.709 162.398 168.641 163.227C169.572 164.057 170.294 165.034 170.805 166.159C171.328 167.284 171.595 168.574 171.606 170.028C171.595 172.165 171.05 174.017 169.97 175.585C168.902 177.142 167.356 178.352 165.334 179.216C163.322 180.068 160.896 180.494 158.055 180.494C155.237 180.494 152.783 180.062 150.692 179.199C148.612 178.335 146.987 177.057 145.817 175.364C144.658 173.659 144.05 171.551 143.993 169.04H151.135C151.214 170.21 151.55 171.187 152.141 171.972C152.743 172.744 153.544 173.33 154.544 173.727C155.555 174.114 156.697 174.307 157.97 174.307C159.22 174.307 160.305 174.125 161.226 173.761C162.158 173.398 162.879 172.892 163.391 172.244C163.902 171.597 164.158 170.852 164.158 170.011C164.158 169.227 163.925 168.568 163.459 168.034C163.004 167.5 162.334 167.045 161.447 166.67C160.572 166.295 159.499 165.955 158.226 165.648L154.425 164.693C151.481 163.977 149.158 162.858 147.453 161.335C145.749 159.812 144.902 157.761 144.913 155.182C144.902 153.068 145.464 151.222 146.601 149.642C147.749 148.062 149.322 146.83 151.322 145.943C153.322 145.057 155.595 144.614 158.141 144.614C160.731 144.614 162.993 145.057 164.925 145.943C166.868 146.83 168.379 148.062 169.459 149.642C170.538 151.222 171.095 153.051 171.129 155.131H164.055ZM179.719 180.443C178.594 180.443 177.628 180.045 176.821 179.25C176.026 178.443 175.628 177.477 175.628 176.352C175.628 175.239 176.026 174.284 176.821 173.489C177.628 172.693 178.594 172.295 179.719 172.295C180.81 172.295 181.764 172.693 182.583 173.489C183.401 174.284 183.81 175.239 183.81 176.352C183.81 177.102 183.617 177.79 183.23 178.415C182.855 179.028 182.361 179.523 181.747 179.898C181.134 180.261 180.458 180.443 179.719 180.443Z" fill="white"/>
</svg>
